<svg xmlns="http://www.w3.org/2000/svg" width="21.804" height="22.654" viewBox="0 0 21.804 22.654">
  <path id="magnifying_glass_icon" data-name="magnifying glass icon" d="M9.454-.017A9.654,9.654,0,0,0,0,9.805a9.654,9.654,0,0,0,9.454,9.822,9.065,9.065,0,0,0,4.484-1.151,2.756,2.756,0,0,0,.351.365l2.7,2.806a2.692,2.692,0,0,0,2.72.877,2.811,2.811,0,0,0,2.014-2.092,2.932,2.932,0,0,0-.844-2.826l-2.7-2.806a2.724,2.724,0,0,0-.432-.365,9.984,9.984,0,0,0,1.188-4.658A9.654,9.654,0,0,0,9.481-.045Zm0,2.806a6.855,6.855,0,0,1,6.753,7.016,7.193,7.193,0,0,1-1.783,4.827l-.081.084a2.756,2.756,0,0,0-.351.365,6.614,6.614,0,0,1-4.565,1.768A6.855,6.855,0,0,1,2.674,9.833,6.855,6.855,0,0,1,9.427,2.817Z" transform="translate(0 0.045)" fill="#3a6958"/>
</svg>
